<svg xmlns="http://www.w3.org/2000/svg" viewBox="0 0 32 32" fill="none">
  <defs>
    <linearGradient id="bg" x1="0" y1="0" x2="32" y2="32" gradientUnits="userSpaceOnUse">
      <stop offset="0%"   stop-color="#0D0D18"/>
      <stop offset="100%" stop-color="#13102A"/>
    </linearGradient>
    <linearGradient id="star" x1="16" y1="1" x2="16" y2="31" gradientUnits="userSpaceOnUse">
      <stop offset="0%"   stop-color="#8BB8F8"/>
      <stop offset="42%"  stop-color="#9B7DC8"/>
      <stop offset="100%" stop-color="#C97285"/>
    </linearGradient>
  </defs>
  <!-- Dark rounded square background -->
  <rect width="32" height="32" rx="7" fill="url(#bg)"/>
  <!-- 4-pointed sparkle star (scaled from app logo 80→32) -->
  <path d="M16 1.6
    C16 1.6 16.64 8.8 18.8 14
    C21.2 19.6 27.2 16 30.4 16
    C27.2 16 21.2 12.4 18.8 18
    C16.64 23.2 16 30.4 16 30.4
    C16 30.4 15.36 23.2 13.2 18
    C10.8 12.4 4.8 16 1.6 16
    C4.8 16 10.8 19.6 13.2 14
    C15.36 8.8 16 1.6 16 1.6Z"
    fill="url(#star)"/>
</svg>
